<svg width="0" height="0" class="hidden">
  <symbol fill="none" xmlns="http://www.w3.org/2000/svg" viewBox="0 0 56 34" id="arrow-down">
    <path d="M25.8786 32.6845L1.58575 8.39152C0.414125 7.21989 0.414125 5.32039 1.58575 4.14889L4.41913 1.31552C5.58875 0.145894 7.48438 0.143643 8.65675 1.31052L28 20.5631L47.3431 1.31052C48.5155 0.143643 50.4111 0.145894 51.5807 1.31552L54.4141 4.14889C55.5857 5.32052 55.5857 7.22002 54.4141 8.39152L30.1214 32.6845C28.9497 33.856 27.0503 33.856 25.8786 32.6845Z" fill="black"></path>
  </symbol>
  <symbol fill="none" xmlns="http://www.w3.org/2000/svg" viewBox="0 0 62 62" id="check">
    <path d="M31 0C13.8791 0 0 13.8791 0 31C0 48.1209 13.8791 62 31 62C48.1209 62 62 48.1209 62 31C62 13.8791 48.1209 0 31 0ZM31 6C44.8165 6 56 17.1814 56 31C56 44.8165 44.8186 56 31 56C17.1835 56 6 44.8186 6 31C6 17.1835 17.1814 6 31 6ZM48.5255 22.2834L45.7085 19.4436C45.1251 18.8555 44.1754 18.8516 43.5872 19.4351L25.9182 36.9621L18.4443 29.4275C17.8609 28.8394 16.9111 28.8355 16.323 29.4189L13.4831 32.2359C12.895 32.8192 12.8911 33.769 13.4746 34.3573L24.8223 45.7967C25.4056 46.3849 26.3554 46.3887 26.9435 45.8052L48.5171 24.4048C49.1051 23.8213 49.1089 22.8715 48.5255 22.2834Z" fill="black"></path>
  </symbol>
  <symbol fill="none" xmlns="http://www.w3.org/2000/svg" viewBox="0 0 18 32" id="facebook">
    <path d="M16.4462 18L17.335 12.2087H11.7781V8.45063C11.7781 6.86625 12.5544 5.32188 15.0431 5.32188H17.5694V0.39125C17.5694 0.39125 15.2769 0 13.085 0C8.50873 0 5.51748 2.77375 5.51748 7.795V12.2087H0.430603V18H5.51748V32H11.7781V18H16.4462Z" fill="white"></path>
  </symbol>
  <symbol fill="none" xmlns="http://www.w3.org/2000/svg" viewBox="0 0 28 28" id="linkedin">
    <path d="M26 0H1.99375C0.89375 0 0 0.90625 0 2.01875V25.9813C0 27.0938 0.89375 28 1.99375 28H26C27.1 28 28 27.0938 28 25.9813V2.01875C28 0.90625 27.1 0 26 0ZM8.4625 24H4.3125V10.6375H8.46875V24H8.4625ZM6.3875 8.8125C5.05625 8.8125 3.98125 7.73125 3.98125 6.40625C3.98125 5.08125 5.05625 4 6.3875 4C7.7125 4 8.79375 5.08125 8.79375 6.40625C8.79375 7.7375 7.71875 8.8125 6.3875 8.8125V8.8125ZM24.0187 24H19.8687V17.5C19.8687 15.95 19.8375 13.9563 17.7125 13.9563C15.55 13.9563 15.2188 15.6438 15.2188 17.3875V24H11.0688V10.6375H15.05V12.4625H15.1062C15.6625 11.4125 17.0188 10.3062 19.0375 10.3062C23.2375 10.3062 24.0187 13.075 24.0187 16.675V24V24Z" fill="white"></path>
  </symbol>
  <symbol fill="none" xmlns="http://www.w3.org/2000/svg" viewBox="0 0 31 32" id="pinterest">
    <path d="M31 16C31 24.5625 24.0625 31.5 15.5 31.5C13.9 31.5 12.3625 31.2562 10.9125 30.8062C11.5438 29.775 12.4875 28.0875 12.8375 26.7437C13.025 26.0187 13.8 23.0562 13.8 23.0562C14.3063 24.0187 15.7813 24.8375 17.35 24.8375C22.025 24.8375 25.3937 20.5375 25.3937 15.1938C25.3937 10.075 21.2125 6.24375 15.8375 6.24375C9.15 6.24375 5.59375 10.7312 5.59375 15.625C5.59375 17.9 6.80625 20.7313 8.7375 21.6313C9.03125 21.7688 9.1875 21.7062 9.25625 21.425C9.30625 21.2125 9.56875 20.1563 9.6875 19.6688C9.725 19.5125 9.70625 19.375 9.58125 19.225C8.95 18.4438 8.4375 17.0187 8.4375 15.6875C8.4375 12.2687 11.025 8.9625 15.4375 8.9625C19.2438 8.9625 21.9125 11.5563 21.9125 15.2688C21.9125 19.4625 19.7938 22.3687 17.0375 22.3687C15.5188 22.3687 14.375 21.1125 14.7437 19.5688C15.1812 17.725 16.025 15.7375 16.025 14.4062C16.025 13.2188 15.3875 12.225 14.0625 12.225C12.5063 12.225 11.2563 13.8313 11.2563 15.9875C11.2563 17.3625 11.7188 18.2875 11.7188 18.2875C11.7188 18.2875 10.1875 24.775 9.90625 25.9875C9.59375 27.325 9.71875 29.2125 9.85 30.4375C4.0875 28.1813 0 22.5687 0 16C0 7.4375 6.9375 0.5 15.5 0.5C24.0625 0.5 31 7.4375 31 16Z" fill="white"></path>
  </symbol>
  <symbol fill="none" xmlns="http://www.w3.org/2000/svg" viewBox="0 0 64 56" id="quote">
    <path d="M58 28H48V20C48 15.5875 51.5875 12 56 12H57C58.6625 12 60 10.6625 60 9V3C60 1.3375 58.6625 0 57 0H56C44.95 0 36 8.95 36 20V50C36 53.3125 38.6875 56 42 56H58C61.3125 56 64 53.3125 64 50V34C64 30.6875 61.3125 28 58 28ZM22 28H12V20C12 15.5875 15.5875 12 20 12H21C22.6625 12 24 10.6625 24 9V3C24 1.3375 22.6625 0 21 0H20C8.95 0 0 8.95 0 20V50C0 53.3125 2.6875 56 6 56H22C25.3125 56 28 53.3125 28 50V34C28 30.6875 25.3125 28 22 28Z" fill="black"></path>
  </symbol>
  <symbol fill="none" xmlns="http://www.w3.org/2000/svg" viewBox="0 0 64 64" id="search">
    <path d="M63.1296 55.3321L50.6662 42.8708C50.1037 42.3084 49.3411 41.9959 48.541 41.9959H46.5034C49.9537 37.5838 52.0038 32.0344 52.0038 25.9975C52.0038 11.6364 40.3655 0 26.0019 0C11.6384 0 0 11.6364 0 25.9975C0 40.3586 11.6384 51.9949 26.0019 51.9949C32.0398 51.9949 37.5903 49.9451 42.0031 46.4955V48.5328C42.0031 49.3327 42.3156 50.0951 42.8781 50.6576L55.3416 63.1188C56.5166 64.2937 58.4168 64.2937 59.5794 63.1188L63.1171 59.5817C64.2922 58.4068 64.2922 56.507 63.1296 55.3321ZM26.0019 41.9959C17.1638 41.9959 10.0007 34.8466 10.0007 25.9975C10.0007 17.1608 17.1513 9.99902 26.0019 9.99902C34.84 9.99902 42.0031 17.1483 42.0031 25.9975C42.0031 34.8341 34.8526 41.9959 26.0019 41.9959Z" fill="black"></path>
  </symbol>
  <symbol fill="none" xmlns="http://www.w3.org/2000/svg" viewBox="0 0 60 64" id="thumbs-up">
    <path d="M58.2837 35.8363C59.38 33.98 60 32 60 29.6063C60 24.1044 55.3477 18.9088 49.2725 18.9088H44.7125C45.3275 17.3075 45.8187 15.3925 45.8187 13.0913C45.8187 3.992 41.1075 0 33.91 0C26.2091 0 26.6484 11.8666 24.94 13.575C22.0966 16.4184 18.7381 21.8809 16.345 24H4C1.79087 24 0 25.7909 0 28V58C0 60.2091 1.79087 62 4 62H12C13.8616 62 15.426 60.7282 15.8722 59.0062C21.4359 59.1314 25.2547 63.9987 38.0975 63.9987C39 63.9987 40 64 40.875 64C50.5146 64 54.8732 59.0721 54.9925 52.0838C56.6574 49.7806 57.5299 46.6935 57.16 43.71C58.3918 41.4035 58.868 38.6671 58.2837 35.8363ZM50.565 42.565C52.135 45.2062 50.7225 48.7412 48.8225 49.7612C49.785 55.8587 46.6215 57.9987 42.1825 57.9987H37.455C28.5001 57.9987 22.7014 53.2713 16 53.2713V30H17.365C20.91 30 25.8625 21.1387 29.1825 17.8175C32.7275 14.2725 31.5462 8.36375 33.91 6C39.8187 6 39.8187 10.1225 39.8187 13.0913C39.8187 17.9875 36.2738 20.1813 36.2738 24.9088H49.2725C51.9112 24.9088 53.9888 27.2725 54 29.6362C54.0112 31.9987 52.3975 34.3625 51.2163 34.3625C52.9024 36.1819 53.2626 40.017 50.565 42.565ZM11 54C11 55.6569 9.65687 57 8 57C6.34312 57 5 55.6569 5 54C5 52.3431 6.34312 51 8 51C9.65687 51 11 52.3431 11 54Z" fill="black"></path>
  </symbol>
  <symbol fill="none" xmlns="http://www.w3.org/2000/svg" viewBox="0 0 32 26" id="twitter">
    <path d="M28.7106 6.48201C28.7309 6.76626 28.7309 7.05057 28.7309 7.33482C28.7309 16.0048 22.132 25.9947 10.0711 25.9947C6.35531 25.9947 2.90356 24.9185 0 23.0506C0.527937 23.1114 1.0355 23.1318 1.58375 23.1318C4.64969 23.1318 7.47206 22.0963 9.72587 20.3298C6.84262 20.2688 4.42637 18.3805 3.59387 15.7815C4 15.8424 4.40606 15.883 4.8325 15.883C5.42131 15.883 6.01019 15.8018 6.55837 15.6597C3.55331 15.0505 1.29944 12.4109 1.29944 9.22313V9.14194C2.1725 9.62926 3.18781 9.93382 4.26388 9.97438C2.49738 8.79669 1.34006 6.78657 1.34006 4.51245C1.34006 3.2942 1.66488 2.17745 2.23344 1.20282C5.46187 5.18251 10.3147 7.78145 15.7563 8.06576C15.6548 7.57845 15.5938 7.07088 15.5938 6.56326C15.5938 2.94901 18.5177 0.00488281 22.1522 0.00488281C24.0405 0.00488281 25.7461 0.796758 26.9441 2.07595C28.4263 1.7917 29.8476 1.24345 31.1065 0.492195C30.6191 2.01507 29.5836 3.29426 28.2232 4.10638C29.5431 3.96432 30.8222 3.59876 31.9999 3.0912C31.1066 4.39063 29.9898 5.54795 28.7106 6.48201V6.48201Z" fill="white"></path>
  </symbol>
  <symbol fill="none" xmlns="http://www.w3.org/2000/svg" viewBox="0 0 36 24" id="youtube">
    <path d="M34.3534 3.75519C33.9609 2.27706 32.8042 1.11294 31.3357 0.717875C28.6738 0 18 0 18 0C18 0 7.32623 0 4.66429 0.717875C3.19573 1.113 2.0391 2.27706 1.64654 3.75519C0.933289 6.43438 0.933289 12.0243 0.933289 12.0243C0.933289 12.0243 0.933289 17.6141 1.64654 20.2933C2.0391 21.7714 3.19573 22.8871 4.66429 23.2821C7.32623 24 18 24 18 24C18 24 28.6737 24 31.3357 23.2821C32.8042 22.8871 33.9609 21.7714 34.3534 20.2933C35.0667 17.6141 35.0667 12.0243 35.0667 12.0243C35.0667 12.0243 35.0667 6.43438 34.3534 3.75519V3.75519ZM14.509 17.0994V6.94906L23.4302 12.0244L14.509 17.0994V17.0994Z" fill="white"></path>
  </symbol>
</svg>